# xmcd
#
# Track frame offsets: 
#        150
#        12320
#        47632
#        63270
#        86417
#        100217
#        114640
#        126250
#        138967
#        153722
#        169450
#        191485
#
# Disc length: 2810 seconds
#
# Revision: 4
# Processed by: cddbd v1.4PL0 Copyright (c) Steve Scherf et al.
# Submitted via: ExactAudioCopy v0.90b4
#
DISCID=a20af80c
DTITLE=Varios Artistas - Un País de Música II - Los años del 600 [II]
DYEAR=2002
DGENRE=Other
TTITLE0=Los Canarios - Get On Your Knees
TTITLE1=Triana - De Una Nana Siendo Niño
TTITLE2=Pedro Ruy Blas - A Los Que Hirió El Amor
TTITLE3=Módulos - Todo Tiene Su Fin
TTITLE4=Pata Negra - Los Managers
TTITLE5=Nuestro Pequeño Mundo - Oh, Sinner Man
TTITLE6=Los Mustang - Conocerte Mejor
TTITLE7=Los Angeles - Mañana, Mañana
TTITLE8=Joan Baptista Humet - Clara
TTITLE9=Micky - Enséñame A Cantar
TTITLE10=Ana Y Jonny - Yo También Necesito Amar
TTITLE11=Barrabás - Wild Safari
EXTD=
EXTT0=
EXTT1=
EXTT2=
EXTT3=
EXTT4=
EXTT5=
EXTT6=
EXTT7=
EXTT8=
EXTT9=
EXTT10=
EXTT11=
PLAYORDER=
